<?xml version="1.0" encoding="utf-8"?>
<!-- Generator: Adobe Illustrator 29.8.3, SVG Export Plug-In . SVG Version: 9.03 Build 0)  -->
<svg version="1.1" baseProfile="basic" id="Layer_1"
	 xmlns="http://www.w3.org/2000/svg" xmlns:xlink="http://www.w3.org/1999/xlink" x="0px" y="0px" width="662.7px" height="219.7px"
	 viewBox="0 0 662.7 219.7" xml:space="preserve">
<style type="text/css">
	.st0{fill:#808080;}
</style>
<g>
	<g id="logo_00000030471779454295312060000013230929931053328298_">
		<g>
			<g>
				<g>
					<path class="st0" d="M221.6,149.8c-1-1.7-2.1-2.9-3.5-3.7c-1.3-0.9-3-1.3-4.9-1.3c-2.1,0-4.2,0.8-6.1,2.4
						c-1.8,1.6-2.8,3.5-2.8,5.6c0,1.3,0.6,2.6,1.7,3.6c1.1,1,2.9,2.1,5.5,3.2s4.3,2,5.2,2.6c1.6,0.7,3.1,1.8,4.5,3.1
						c1.3,1.3,2.4,2.8,3,4.5c0.7,1.7,1,3.4,1,5.2c0,3.3-0.7,6.6-2,9.8c-1.3,3.2-3.1,6-5.4,8.2s-4.8,4-7.6,5.1
						c-2.8,1.1-5.8,1.7-9.2,1.7c-4.3,0-7.8-1.1-10.6-3.3c-2.8-2.2-4.9-5.3-6.6-8.9l9.1-7.6c0.6,2.8,1.8,5,3.6,6.6
						c1.8,1.7,3.8,2.4,6.1,2.4c2.6,0,4.8-1,6.7-3.2c1.9-2.1,2.9-4.5,2.9-7.2c0-1.8-0.6-3.3-1.7-4.5c-1.1-1.2-2.9-2.3-5.5-3.3
						c-4.7-1.8-8.1-3.9-10.3-6.1s-3.2-5-3.2-8.4c0-3.7,0.9-7.2,2.8-10.6c1.8-3.4,4.5-6,7.8-8.1c3.3-2.1,6.8-3.1,10.8-3.1
						c2.9,0,5.9,0.6,8.9,2c3,1.3,5.3,2.9,6.9,5L221.6,149.8z"/>
				</g>
			</g>
			<g>
				<g>
					<path class="st0" d="M250.3,128.5l-5.2,32.6l0.2,0c1.5-1.6,3.2-2.9,5.2-3.6c2-0.7,4-1.1,6.1-1.1c7.8,0,11.7,4,11.7,12
						c0,1.3-0.2,2.9-0.4,4.8l-3.9,24.8l-11.5,0c0.8-5.4,2.1-13.2,3.7-23.3c0.2-1.5,0.3-2.7,0.3-3.5c0-1.8-0.4-3.2-1.2-4.1
						c-0.7-1-2.1-1.4-3.9-1.4c-2.4,0-4.3,1-5.7,2.9c-1.4,1.8-2.4,4.9-3.1,9.2l-3.2,20.5l-11.6,0l11-69.6L250.3,128.5L250.3,128.5z"
						/>
				</g>
			</g>
			<g>
				<g>
					<path class="st0" d="M305.2,157.8l11.4,0l-6.4,40.3l-11.3,0l0.6-3.7l-0.2,0c-1.5,1.6-3.3,2.9-5.4,3.7c-2.1,0.9-4.2,1.3-6.3,1.3
						c-4.6,0-8.4-1.6-11.2-4.8c-2.9-3.2-4.3-7.5-4.3-12.7c0-4.2,1-8.3,2.9-12.2c2-4,4.7-7.1,8.1-9.5c3.4-2.4,7.2-3.7,11.1-3.7
						c2.1,0,4.1,0.4,5.9,1.3c1.9,0.9,3.4,2.1,4.5,3.7L305.2,157.8z M295.2,166.7c-2.9,0-5.6,1.3-7.9,4.2c-2.3,2.7-3.5,5.8-3.5,9.2
						c0,2.6,0.7,4.8,2.2,6.6c1.5,1.8,3.4,2.6,5.7,2.6c2.9,0,5.6-1.3,8-4.1c2.4-2.7,3.6-5.7,3.6-9.2c0-2.6-0.7-4.9-2.2-6.7
						C299.7,167.6,297.7,166.7,295.2,166.7z"/>
				</g>
			</g>
			<g>
				<g>
					<path class="st0" d="M348.2,168.2c-1.3-1-2.8-1.5-4.5-1.5c-3.1,0-5.6,1-7.2,3.2c-1.7,2.1-2.9,5.3-3.6,9.7l-2.9,18.6l-11.6,0
						l6.4-40.3l11.5,0l-0.6,4.2l0.2,0c1.4-1.8,3.1-3.1,4.9-4c1.8-1,3.8-1.4,6-1.4c0.8,0,1.7,0.1,2.4,0.2c0.8,0.2,1.5,0.4,2.1,0.7
						L348.2,168.2z"/>
				</g>
			</g>
			<g>
				<g>
					<path class="st0" d="M360.7,194.4l-0.2,0l-3.9,25.3l-11.5,0l9.8-61.9l11.5,0l-0.6,3.7c1.6-1.6,3.4-2.8,5.6-3.7
						c2.1-0.9,4.2-1.3,6.4-1.3c4.6,0,8.4,1.7,11.1,5c2.8,3.3,4.2,7.5,4.1,12.4c0,4.2-1,8.2-2.9,12.2c-2,4-4.7,7.2-8.1,9.7
						c-3.4,2.5-7.2,3.7-11.4,3.7c-2.1,0-4-0.4-5.8-1.3C363,197.3,361.6,196,360.7,194.4z M373.3,166.7c-3,0-5.7,1.4-8,4.2
						c-2.3,2.8-3.4,5.9-3.4,9.1c0,2.7,0.7,4.9,2.2,6.7c1.5,1.8,3.4,2.6,5.7,2.6c3.1,0,5.7-1.3,8.1-4.2c2.3-2.8,3.4-5.9,3.4-9.2
						c0-2.6-0.7-4.8-2.2-6.5C377.7,167.6,375.7,166.7,373.3,166.7z"/>
				</g>
			</g>
			<g>
				<g>
					<path class="st0" d="M425.4,139.2c-0.7-0.4-1.4-0.7-2.1-1c-0.7-0.2-1.4-0.4-2.3-0.4c-2.9,0-4.8,2.3-5.6,6.8
						c-0.8,4.5-1.2,6.8-1.2,6.8l-1,6.5l9.2,0l-1.6,9.7l-9.2,0l-4.9,30.6l-11.5,0l4.9-30.6l-3.9,0l1.5-9.7l3.9,0l1.8-11.2
						c1-6.2,3.1-10.9,6.2-14.2s7.2-4.9,12-4.9c2,0,3.8,0.4,5.3,1.3L425.4,139.2z"/>
				</g>
			</g>
			<g>
				<g>
					<path class="st0" d="M442.3,128.6l-11.1,69.6l-11.5,0l11.1-69.6L442.3,128.6L442.3,128.6z"/>
				</g>
			</g>
			<g>
				<g>
					<path class="st0" d="M478.1,180l-26.5,0c-0.2,1.2-0.2,2.1-0.2,2.6c0,2.6,0.5,4.7,1.5,6.1c1,1.4,2.7,2.1,4.9,2.1
						c1.9,0,3.5-0.5,5-1.5c1.3-1,2.6-2.3,3.7-4l10.3,1.7c-2.1,4.1-4.9,7.2-8.5,9.3s-7.6,3.2-11.9,3.2c-5.3,0-9.4-1.5-12.5-4.5
						c-3.1-3.1-4.6-7.2-4.6-12.3c0-3.9,0.9-7.9,2.6-12c1.8-4.1,4.4-7.5,8-10.1c3.6-2.6,7.8-3.9,12.8-3.9c5.2,0,9.2,1.5,11.9,4.4
						c2.8,2.9,4.2,7.1,4.1,12.4c0,0.9-0.1,1.8-0.1,2.9C478.5,177.3,478.3,178.5,478.1,180z M468.4,172.8c0-2.6-0.6-4.6-1.8-6.1
						c-1.2-1.3-2.7-2.1-4.6-2.1c-1.8,0-3.5,0.7-5.3,2.1c-1.7,1.4-2.9,3.4-3.7,6L468.4,172.8z"/>
				</g>
			</g>
			<g>
				<g>
					<path class="st0" d="M279.9,133.9c-0.7-0.8-1.6-1.3-2.6-1.8c-1-0.4-1.9-0.6-2.9-0.6c-1.3,0-2.5,0.4-3.6,1
						c-1.1,0.7-2,1.6-2.6,2.7c-0.6,1.2-1,2.4-1,3.7c0,1.3,0.3,2.5,1,3.7c0.7,1.2,1.5,2.1,2.7,2.8c1.1,0.7,2.3,1,3.6,1
						c1,0,1.9-0.2,2.9-0.6c1-0.4,1.8-1,2.6-1.8l0,2.4c-0.7,0.6-1.6,1-2.6,1.3c-1,0.3-1.8,0.5-2.8,0.5c-1.6,0-3.1-0.4-4.5-1.2
						c-1.4-0.8-2.6-1.9-3.5-3.3c-0.9-1.4-1.3-2.9-1.3-4.7c0-1.7,0.4-3.2,1.3-4.6s2-2.6,3.4-3.4c1.4-0.9,2.9-1.3,4.6-1.3
						c1,0,2,0.2,2.9,0.6c1,0.3,1.8,0.7,2.4,1.2L279.9,133.9L279.9,133.9z"/>
				</g>
			</g>
			<g>
				<g>
					<path class="st0" d="M281.1,142.4c0-1,0.2-2,0.8-2.9c0.6-0.9,1.2-1.6,2.1-2.1c0.9-0.5,1.9-0.8,2.9-0.8c1,0,2,0.2,2.9,0.8
						c0.9,0.6,1.6,1.2,2.1,2.1c0.5,0.9,0.8,1.9,0.8,2.9c0,1-0.2,2.1-0.8,2.9c-0.6,0.9-1.2,1.6-2.1,2.1c-0.9,0.5-1.9,0.8-2.9,0.8
						c-1,0-2-0.2-2.9-0.8c-0.9-0.6-1.6-1.3-2.1-2.1C281.3,144.3,281.1,143.4,281.1,142.4z M286.9,138.2c-1.2,0-2.1,0.4-2.9,1.2
						c-0.7,0.8-1.1,1.8-1.1,2.9c0,0.9,0.2,1.6,0.6,2.3c0.4,0.6,0.9,1.1,1.5,1.4c0.6,0.2,1.2,0.4,1.8,0.4c0.7,0,1.3-0.2,2-0.5
						c0.6-0.3,1-0.9,1.4-1.5c0.4-0.6,0.6-1.3,0.6-2.1c0-0.7-0.2-1.4-0.5-2s-0.8-1.2-1.4-1.5C288.3,138.4,287.7,138.2,286.9,138.2z"
						/>
				</g>
			</g>
			<g>
				<g>
					<path class="st0" d="M299,130.2c-0.2-0.1-0.5-0.2-0.7-0.2c-0.2-0.1-0.4-0.1-0.6-0.1c-0.6,0-1,0.2-1.2,0.5
						c-0.2,0.3-0.3,1-0.3,1.8l0,4.5l2.8,0l0,1.8l-2.8,0l0,9.4l-1.9,0l0-9.4l-1,0l0-1.8l1,0l0-4.9c0-0.9,0.1-1.5,0.3-2.1
						c0.2-0.6,0.6-0.9,1.1-1.2c0.6-0.3,1.2-0.5,1.9-0.5c0.2,0,0.5,0,0.7,0.1c0.2,0.1,0.5,0.1,0.6,0.2l0,1.9L299,130.2L299,130.2z"/>
				</g>
			</g>
			<g>
				<g>
					<path class="st0" d="M304.4,130.2c-0.2-0.1-0.5-0.2-0.7-0.2c-0.2-0.1-0.4-0.1-0.6-0.1c-0.6,0-1,0.2-1.2,0.5
						c-0.2,0.3-0.3,1-0.3,1.8l0,4.5l2.8,0l0,1.8l-2.8,0l0,9.4l-1.9,0l0-9.4l-1,0l0-1.8l1,0l0-4.9c0-0.9,0.1-1.5,0.3-2.1
						c0.2-0.6,0.6-0.9,1.1-1.2c0.6-0.3,1.2-0.5,1.9-0.5c0.2,0,0.5,0,0.7,0.1c0.2,0.1,0.5,0.1,0.6,0.2l0,1.9L304.4,130.2L304.4,130.2
						z"/>
				</g>
			</g>
			<g>
				<g>
					<path class="st0" d="M314.4,142.8l-8.7,0c0.1,1.1,0.4,2,1.1,2.7s1.5,1,2.6,1c0.7,0,1.3-0.2,1.8-0.5c0.6-0.4,1-1,1.5-1.8l1.6,1
						c-0.6,1-1.3,1.8-2.1,2.3s-1.8,0.8-3,0.8c-1.1,0-2.1-0.2-2.9-0.8c-0.9-0.6-1.5-1.2-1.9-2.1c-0.4-0.9-0.6-1.8-0.6-2.9
						c0-1.2,0.2-2.1,0.6-3.1c0.4-0.9,1-1.6,1.8-2.1c0.9-0.5,1.8-0.8,2.9-0.8c1.1,0,2,0.2,2.8,0.8c0.8,0.6,1.4,1.2,1.8,2.1
						s0.6,1.9,0.6,3C314.5,142.5,314.5,142.7,314.4,142.8z M312.4,141.2c-0.2-0.9-0.5-1.5-1.2-2.1c-0.6-0.6-1.3-0.8-2.1-0.8
						c-0.8,0-1.5,0.2-2.2,0.9c-0.7,0.6-1,1.3-1.2,2.1L312.4,141.2L312.4,141.2z"/>
				</g>
			</g>
			<g>
				<g>
					<path class="st0" d="M325.6,142.8l-8.7,0c0.1,1.1,0.4,2,1.1,2.7c0.7,0.7,1.5,1,2.6,1c0.7,0,1.3-0.2,1.8-0.5
						c0.6-0.4,1-1,1.5-1.8l1.6,1c-0.6,1-1.3,1.8-2.1,2.3c-0.9,0.5-1.8,0.8-3,0.8c-1.1,0-2.1-0.2-2.9-0.8c-0.9-0.6-1.5-1.2-1.9-2.1
						c-0.4-0.9-0.6-1.8-0.6-2.9c0-1.2,0.2-2.1,0.6-3.1c0.4-0.9,1-1.6,1.8-2.1c0.9-0.5,1.8-0.8,2.9-0.8s2,0.2,2.8,0.8
						c0.8,0.6,1.4,1.2,1.8,2.1c0.4,0.9,0.6,1.9,0.6,3C325.6,142.5,325.6,142.7,325.6,142.8z M323.5,141.2c-0.2-0.9-0.5-1.5-1.2-2.1
						c-0.6-0.6-1.3-0.8-2.1-0.8c-0.8,0-1.5,0.2-2.2,0.9s-1,1.3-1.2,2.1L323.5,141.2L323.5,141.2z"/>
				</g>
			</g>
			<g>
				<g>
					<path class="st0" d="M339.6,137.8l3.7,4.8l2-2.4l1.4,1.2l-2.3,2.6l3,3.9l-2.6,0l-1.9-2.6c-1.1,1-2.1,1.7-3,2.1
						c-1,0.5-1.8,0.7-2.7,0.7c-1,0-1.8-0.2-2.6-0.6c-0.8-0.4-1.4-1-1.9-1.8c-0.5-0.8-0.7-1.7-0.7-2.6c0-0.8,0.2-1.5,0.5-2.1
						c0.3-0.7,0.7-1.2,1.3-1.7c0.6-0.5,1.5-1.2,2.8-2.1c-0.5-0.7-1-1.3-1.3-1.9c-0.3-0.6-0.5-1.2-0.5-1.9c0-1,0.4-2,1.1-2.7
						s1.7-1.1,2.8-1.1c1,0,2,0.4,2.7,1c0.7,0.7,1.1,1.5,1.1,2.5c0,0.9-0.2,1.6-0.8,2.3C341.5,136.3,340.7,137,339.6,137.8z
						 M338.5,136.3l0.8-0.6c0.6-0.5,1-0.9,1.3-1.3c0.2-0.4,0.3-0.7,0.3-1.1c0-0.6-0.2-1-0.6-1.3c-0.4-0.3-0.9-0.6-1.3-0.6
						c-0.6,0-1,0.2-1.3,0.6c-0.4,0.4-0.6,0.9-0.6,1.3c0,0.6,0.2,1,0.6,1.7L338.5,136.3z M341.9,144l-4-5.1c-0.6,0.4-1.2,0.9-1.8,1.2
						c-0.6,0.4-1,0.9-1.4,1.3c-0.4,0.5-0.6,1.2-0.6,1.8c0,0.9,0.3,1.6,1,2.3c0.6,0.6,1.3,1,2.2,1c0.7,0,1.3-0.2,2.1-0.6
						C340,145.5,340.9,144.8,341.9,144z"/>
				</g>
			</g>
			<g>
				<g>
					<path class="st0" d="M357.5,130.1c1.9,0,3.3,0.4,4.3,1.3c1,0.9,1.5,2,1.5,3.5c0,0.7-0.2,1.4-0.4,2c-0.2,0.6-0.7,1-1.3,1.5
						c1,0.2,1.8,0.8,2.4,1.7s1,1.8,1,2.9c0,1.5-0.6,2.8-1.7,3.7c-1.1,0.9-2.6,1.3-4.6,1.3l-4.2,0l0-17.8L357.5,130.1L357.5,130.1z
						 M356.4,138l1,0c1.2,0,2-0.1,2.6-0.4c0.6-0.2,0.9-0.6,1.1-1s0.4-1,0.4-1.7c0-1-0.2-1.8-0.9-2.3c-0.5-0.5-1.6-0.7-3.2-0.7
						l-0.9,0L356.4,138L356.4,138z M358.6,146.1c1.5,0,2.6-0.2,3.3-0.8c0.7-0.6,1.1-1.3,1.1-2.5c0-1-0.4-1.8-1.2-2.4
						c-0.8-0.6-2-0.8-3.5-0.8l-1.8,0l0,6.4L358.6,146.1L358.6,146.1z"/>
				</g>
			</g>
			<g>
				<g>
					<path class="st0" d="M374.9,138.4l0-1.6l1.9,0l0,11.1l-1.9,0l0-1.5l-0.1,0c-1,1.3-2.2,1.8-3.8,1.8c-1.5,0-2.9-0.6-3.8-1.7
						c-1-1.2-1.5-2.6-1.5-4.2c0-1.7,0.5-3.1,1.5-4.2c1-1.1,2.3-1.7,3.9-1.7c0.8,0,1.5,0.2,2.1,0.6S374.4,137.8,374.9,138.4
						L374.9,138.4z M371.3,138.3c-1,0-1.8,0.4-2.6,1.2c-0.7,0.8-1,1.8-1,2.9c0,1.2,0.3,2.2,1,3c0.7,0.8,1.6,1.2,2.6,1.2
						c1.1,0,2-0.4,2.7-1.2c0.7-0.8,1-1.8,1-3c0-1.2-0.4-2.1-1-2.9C373.3,138.7,372.4,138.3,371.3,138.3z"/>
				</g>
			</g>
			<g>
				<g>
					<path class="st0" d="M384.2,138.8c-0.2-0.1-0.4-0.2-0.5-0.3s-0.4-0.2-0.6-0.2c-0.7,0-1.3,0.3-1.7,1c-0.4,0.7-0.6,1.7-0.6,3
						l0,5.7l-1.9,0l0-11.1l1.9,0l0,1.2l0.1,0c0.5-0.6,0.9-1,1.2-1.2c0.4-0.2,0.8-0.3,1.3-0.3c0.3,0,0.6,0.1,0.9,0.2
						c0.3,0.1,0.6,0.2,0.9,0.4L384.2,138.8z"/>
				</g>
			</g>
		</g>
	</g>
	<g>
		<g>
			<path class="st0" d="M24.8,102H5.1V29.1h19.7V102z"/>
			<path class="st0" d="M88.8,102H69.9V75c0-2.3-0.2-3.9-0.7-4.9c-0.5-0.9-1.3-1.4-2.4-1.4c-2.6,0-4,2.5-4,7.5V102H43.9v-51h18.9
				c0,1.3-0.1,2.4-0.1,3.5s-0.1,2.1-0.1,3l-0.2,3.3c3.1-7.2,7.5-10.8,13.4-10.8c4.1,0,7.3,1.5,9.5,4.6c2.3,3.1,3.4,7.3,3.4,12.7V102
				z"/>
			<path class="st0" d="M136.7,102h-19.8l-14.1-51H122l2.9,14.9c0.4,1.9,0.8,4.3,1.1,7.2c0.3,2.8,0.7,6.3,1,10.2
				c0.4-3.6,0.9-6.8,1.3-9.4c0.4-2.7,0.8-5,1.2-6.9l3.3-16h18.7L136.7,102z"/>
			<path class="st0" d="M190.8,84.7l18.5,0.4c-1.3,5.9-3.9,10.4-7.7,13.4c-3.8,3-8.8,4.5-15,4.5c-7.3,0-13-2.3-17.2-6.8
				c-4.1-4.6-6.2-10.9-6.2-18.8c0-8.1,2.2-14.7,6.7-19.8c4.4-5.1,10.2-7.7,17.2-7.7c7,0,12.6,2.5,16.7,7.4c4.2,5,6.2,11.6,6.2,19.8
				l-0.1,3.4h-27.8c0.2,5.2,1.7,7.8,4.4,7.8C188.7,88.3,190.1,87.1,190.8,84.7z M191.2,70.2c0-0.9-0.1-1.8-0.3-2.6
				c-0.2-0.8-0.5-1.5-0.9-2s-0.9-1-1.4-1.3c-0.5-0.3-1.1-0.5-1.7-0.5c-1.3,0-2.4,0.6-3.2,1.8c-0.8,1.2-1.2,2.8-1.2,4.7H191.2z"/>
			<path class="st0" d="M271.9,102H253V75c0-2.3-0.2-3.9-0.7-4.9c-0.5-0.9-1.2-1.4-2.4-1.4c-2.6,0-4,2.5-4,7.5V102H227v-51h18.9
				c0,1.3-0.1,2.4-0.1,3.5s-0.1,2.1-0.1,3l-0.2,3.3c3.1-7.2,7.5-10.8,13.4-10.8c4.1,0,7.3,1.5,9.5,4.6c2.3,3.1,3.4,7.3,3.4,12.7V102
				z"/>
			<path class="st0" d="M332,79.5l-1.1,21.1c-4.4,1.8-8.3,2.6-11.8,2.6c-8.2,0-15-3-20.6-9c-6.2-6.7-9.3-16.2-9.3-28.5
				c0-11.5,2.9-20.7,8.8-27.7c5.9-6.9,13.7-10.4,23.5-10.4c3.2,0,6.4,0.6,9.7,1.8v20.8c-2.9-2.9-5.9-4.4-9-4.4c-4,0-7.2,1.7-9.4,5.1
				c-2.3,3.5-3.4,8.2-3.4,14.4c0,3,0.3,5.6,0.8,7.9c0.6,2.3,1.4,4.3,2.4,5.9s2.4,2.8,3.9,3.7c1.5,0.8,3.3,1.3,5.3,1.3
				C325.1,84.3,328.6,82.7,332,79.5z"/>
			<path class="st0" d="M393.5,102h-18.9V75c0-2.3-0.2-3.9-0.7-4.9s-1.3-1.4-2.4-1.4c-2.6,0-4,2.5-4,7.5V102h-18.9V22.2h18.9v28.5
				c0,1.5,0,2.8,0,3.9c0,1,0,1.8-0.1,2.4c0,0.5-0.1,1.1-0.1,1.7c-0.1,0.6-0.1,1.3-0.2,2c3.1-7.2,7.5-10.8,13.4-10.8
				c4.1,0,7.3,1.5,9.5,4.6c2.3,3.1,3.4,7.3,3.4,12.7V102z"/>
			<path class="st0" d="M438.1,84.7l18.5,0.4c-1.3,5.9-3.9,10.4-7.7,13.4s-8.8,4.5-15,4.5c-7.3,0-13-2.3-17.2-6.8
				c-4.1-4.6-6.2-10.9-6.2-18.8c0-8.1,2.2-14.7,6.7-19.8c4.4-5.1,10.2-7.7,17.2-7.7c7,0,12.6,2.5,16.7,7.4c4.2,5,6.2,11.6,6.2,19.8
				l-0.1,3.4h-27.8c0.2,5.2,1.7,7.8,4.4,7.8C436,88.3,437.4,87.1,438.1,84.7z M438.5,70.2c0-0.9-0.1-1.8-0.3-2.6
				c-0.2-0.8-0.5-1.5-0.9-2s-0.9-1-1.4-1.3c-0.5-0.3-1.1-0.5-1.7-0.5c-1.3,0-2.4,0.6-3.2,1.8c-0.8,1.2-1.2,2.8-1.2,4.7H438.5z"/>
			<path class="st0" d="M500.8,85.3v17.4c-1.1,0.1-2.1,0.2-3,0.3c-0.9,0-1.6,0.1-2.1,0.1c-5.7,0-10.4-1.7-14.2-5.1
				c-2.6-2.3-4.7-5.4-6.3-9.4s-2.4-8.1-2.4-12.3c0-7.5,2.3-13.8,6.9-18.8c4.6-5,10.3-7.5,17.3-7.5c0.4,0,0.9,0,1.6,0
				c0.6,0,1.4,0.1,2.3,0.1v16.6c-5.6,0.4-8.4,3.4-8.4,9.2c0,2.6,0.7,4.8,2.1,6.8c1.4,1.9,3.1,2.8,5.1,2.8c0.2,0,0.4,0,0.6,0
				C500.3,85.4,500.5,85.3,500.8,85.3z"/>
			<path class="st0" d="M547.4,102l-7.3-19.8c-0.3-0.9-0.9-2.8-1.7-5.8V102h-18.9V22.2h18.9v51.7c0.4-1.3,0.9-2.6,1.3-3.9
				c0.5-1.3,1-2.6,1.5-4l6.1-15.1h20.5l-12.6,23.4l13.8,27.6H547.4z"/>
		</g>
		<g>
			<g>
				<path class="st0" d="M654.2,4l-20.6,1.8L633.1,0l-35,3.1l0.5,5.8l-20.6,1.8l8.5,95.4l76.1-6.8L654.2,4z M598,92.1l-6.5-73.3
					l51-4.5l6.5,73.3L598,92.1z"/>
			</g>
			<g>
				
					<rect x="600.3" y="23.4" transform="matrix(0.9961 -8.834606e-02 8.834606e-02 0.9961 4.548255e-02 54.6915)" class="st0" width="35.1" height="7"/>
			</g>
			<g>
				
					<rect x="601.5" y="36.4" transform="matrix(0.9961 -8.834606e-02 8.834606e-02 0.9961 -1.107 54.8453)" class="st0" width="35.1" height="7"/>
			</g>
		</g>
	</g>
</g>
</svg>
