<?xml version="1.0" encoding="utf-8"?>
<!-- Generator: Adobe Illustrator 29.8.3, SVG Export Plug-In . SVG Version: 9.03 Build 0)  -->
<svg version="1.1" baseProfile="basic" id="Layer_1"
	 xmlns="http://www.w3.org/2000/svg" xmlns:xlink="http://www.w3.org/1999/xlink" x="0px" y="0px" width="512px" height="512px"
	 viewBox="0 0 512 512" xml:space="preserve" style="background-color: #ffffff">
<style type="text/css">
	.st0{fill:#808080;}
	.st1{opacity:0.8;}
	.st2{fill:url(#SVGID_1_);}
	.st3{fill:url(#SVGID_00000003794450287560077480000012696102561214548103_);}
	.st4{fill:url(#SVGID_00000129179609981780378410000014333740650898855094_);}
	.st5{fill:url(#SVGID_00000054251467060290387150000017288460785111519910_);}
	.st6{fill:url(#SVGID_00000077292116048511644730000010193864188330234547_);}
	.st7{fill:url(#SVGID_00000045611946048366279120000002670498216901712554_);}
	.st8{fill:url(#SVGID_00000060027650740044685610000001603475835636595387_);}
	.st9{fill:url(#SVGID_00000052073841120327192770000004065239980329421725_);}
	.st10{fill:url(#SVGID_00000142885377572854952240000004032708829089703869_);}
	.st11{fill:url(#SVGID_00000002363809131736554010000007245213577475263104_);}
	.st12{fill:url(#SVGID_00000059997517369173161500000017874233453247641768_);}
	.st13{fill:url(#SVGID_00000040561270253563139940000015936720843497263551_);}
	.st14{fill:url(#SVGID_00000108282938659204306780000016993156438391284864_);}
	.st15{fill:url(#SVGID_00000067927538690944496900000017209845751430109576_);}
	.st16{fill:url(#SVGID_00000163774596594875875560000014363491341210830508_);}
	.st17{fill:url(#SVGID_00000018941276630343573430000009293010205234125198_);}
	.st18{fill:url(#SVGID_00000014614019876567287520000010312014232596894134_);}
	.st19{fill:url(#SVGID_00000019653607358324358120000013853919663095704988_);}
	.st20{opacity:0.8;fill:url(#SVGID_00000117661382133252473190000011363772848540246702_);}
	.st21{opacity:0.8;fill:#5B4849;}
	.st22{fill:url(#SVGID_00000084532200564677406480000012496576882091163045_);}
	.st23{fill:url(#SVGID_00000176750733961160064640000016782744961702049429_);}
	.st24{fill:url(#SVGID_00000023259981564024633770000003452646578941954698_);}
</style>
<g id="logo_00000038377987760376285790000002961773752025773198_" class="st1">
	<g>
		<g>
			<g>
				<linearGradient id="SVGID_1_" gradientUnits="userSpaceOnUse" x1="190.6522" y1="356.4573" x2="211.8738" y2="356.4573">
					<stop  offset="0" style="stop-color:#808080"/>
					<stop  offset="1" style="stop-color:#231F20"/>
				</linearGradient>
				<path class="st2" d="M208.5,346.4c-0.6-0.8-1.3-1.4-2.1-1.8c-0.8-0.4-1.7-0.5-2.7-0.4c-1.1,0.1-2.2,0.7-3.1,1.6
					c-0.9,1-1.3,2-1.1,3.1c0.1,0.7,0.5,1.3,1.1,1.8c0.6,0.5,1.7,0.9,3.1,1.4c1.4,0.4,2.4,0.8,2.9,1.1c0.9,0.3,1.8,0.8,2.5,1.4
					c0.8,0.6,1.4,1.4,1.8,2.2c0.4,0.8,0.7,1.7,0.8,2.7c0.2,1.7,0,3.5-0.5,5.3c-0.5,1.8-1.3,3.4-2.4,4.7c-1.1,1.3-2.3,2.4-3.7,3.1
					c-1.4,0.7-3,1.2-4.8,1.4c-2.3,0.2-4.2-0.1-5.8-1.2c-1.6-1-2.9-2.5-4-4.3l4.4-4.6c0.5,1.5,1.2,2.6,2.3,3.3c1,0.8,2.1,1.1,3.4,0.9
					c1.4-0.1,2.5-0.8,3.4-2.1c0.9-1.2,1.3-2.5,1.1-4c-0.1-0.9-0.5-1.7-1.2-2.3c-0.7-0.6-1.7-1-3.1-1.4c-2.6-0.7-4.5-1.6-5.8-2.7
					c-1.3-1-2-2.5-2.2-4.3c-0.2-2,0.1-3.9,0.9-5.8c0.8-1.9,2-3.5,3.7-4.7c1.6-1.3,3.5-2,5.5-2.3c1.6-0.2,3.1,0,4.8,0.5
					c1.7,0.5,3,1.3,3.9,2.2L208.5,346.4z"/>
			</g>
		</g>
		<g>
			<g>
				
					<linearGradient id="SVGID_00000087406272299423296520000015057569080575797415_" gradientUnits="userSpaceOnUse" x1="214.4433" y1="352.5862" x2="234.2659" y2="352.5862">
					<stop  offset="0" style="stop-color:#808080"/>
					<stop  offset="1" style="stop-color:#231F20"/>
				</linearGradient>
				<path style="fill:url(#SVGID_00000087406272299423296520000015057569080575797415_);" d="M222.4,333.5l-0.9,17.6l0.1,0
					c0.7-1,1.6-1.7,2.5-2.2c1-0.5,2.1-0.8,3.1-0.9c4.1-0.4,6.4,1.5,6.9,5.7c0.1,0.7,0.1,1.5,0,2.6l-0.7,13.3l-6.1,0.7
					c0.1-2.9,0.4-7.1,0.7-12.6c0-0.8,0-1.4,0-1.9c-0.1-0.9-0.4-1.7-0.8-2.1c-0.4-0.5-1.2-0.6-2.2-0.5c-1.3,0.1-2.2,0.8-2.9,1.8
					c-0.6,1.1-1,2.7-1.1,5l-0.5,11l-6.1,0.7l1.9-37.5L222.4,333.5L222.4,333.5z"/>
			</g>
		</g>
		<g>
			<g>
				
					<linearGradient id="SVGID_00000040567360539141208610000017869980245577614212_" gradientUnits="userSpaceOnUse" x1="236.9284" y1="357.1433" x2="259.227" y2="357.1433">
					<stop  offset="0" style="stop-color:#808080"/>
					<stop  offset="1" style="stop-color:#231F20"/>
				</linearGradient>
				<path style="fill:url(#SVGID_00000040567360539141208610000017869980245577614212_);" d="M253.2,345.9l6-0.6l-1.1,21.7l-6,0.6
					l0.1-2l-0.1,0c-0.7,0.9-1.6,1.7-2.7,2.3c-1.1,0.6-2.2,1-3.3,1.1c-2.4,0.3-4.5-0.4-6.2-1.9c-1.7-1.6-2.7-3.7-3-6.5
					c-0.2-2.2,0-4.5,0.9-6.6c0.8-2.2,2.1-4.1,3.7-5.5c1.7-1.5,3.6-2.3,5.7-2.6c1.1-0.1,2.2,0,3.2,0.4c1.1,0.3,1.9,0.9,2.6,1.7
					L253.2,345.9z M248.4,351.2c-1.6,0.2-2.9,1-4,2.7c-1.1,1.6-1.5,3.3-1.3,5.1c0.1,1.4,0.7,2.5,1.5,3.4c0.9,0.9,1.9,1.2,3.2,1.1
					c1.6-0.2,2.9-1,4-2.6c1.1-1.6,1.6-3.2,1.4-5.1c-0.1-1.4-0.7-2.6-1.5-3.4C250.8,351.4,249.8,351,248.4,351.2z"/>
			</g>
		</g>
		<g>
			<g>
				
					<linearGradient id="SVGID_00000169549952352156746950000009650120007108194954_" gradientUnits="userSpaceOnUse" x1="262.4869" y1="354.7074" x2="277.6432" y2="354.7074">
					<stop  offset="0" style="stop-color:#808080"/>
					<stop  offset="1" style="stop-color:#231F20"/>
				</linearGradient>
				<path style="fill:url(#SVGID_00000169549952352156746950000009650120007108194954_);" d="M276.6,349c-0.8-0.4-1.6-0.6-2.4-0.5
					c-1.7,0.2-2.9,0.9-3.6,2.1c-0.8,1.2-1.3,3-1.4,5.3l-0.5,10l-6.2,0.7l1.1-21.7l6.1-0.7l-0.1,2.2l0.1,0c0.6-1,1.4-1.8,2.4-2.4
					c0.9-0.6,1.9-1,3.1-1.1c0.4,0,0.9,0,1.3,0c0.4,0.1,0.8,0.1,1.2,0.2L276.6,349z"/>
			</g>
		</g>
		<g>
			<g>
				
					<linearGradient id="SVGID_00000054262362978784806360000001559808424096688318_" gradientUnits="userSpaceOnUse" x1="277.8914" y1="358.7114" x2="300.7373" y2="358.7114">
					<stop  offset="0" style="stop-color:#808080"/>
					<stop  offset="1" style="stop-color:#231F20"/>
				</linearGradient>
				<path style="fill:url(#SVGID_00000054262362978784806360000001559808424096688318_);" d="M284.7,362.1L284.7,362.1l-0.7,13.6
					l-6.1,0.7l1.7-33.3l6.1-0.7l-0.1,2c0.8-0.9,1.7-1.7,2.7-2.3c1.1-0.6,2.2-1,3.3-1.1c2.5-0.3,4.5,0.4,6.2,2
					c1.7,1.6,2.6,3.7,2.9,6.3c0.2,2.2-0.1,4.4-0.9,6.6c-0.8,2.2-2.1,4.1-3.7,5.6c-1.7,1.5-3.6,2.4-5.8,2.6c-1.1,0.1-2.2,0-3.2-0.4
					C286.1,363.5,285.3,362.9,284.7,362.1z M289.8,346.7c-1.6,0.2-2.9,1.1-4,2.7s-1.5,3.3-1.3,5c0.2,1.4,0.7,2.6,1.5,3.4
					s1.9,1.2,3.2,1c1.6-0.2,3-1,4-2.7c1-1.6,1.5-3.3,1.3-5.1c-0.1-1.4-0.7-2.5-1.5-3.3C292.2,347,291.1,346.6,289.8,346.7z"/>
			</g>
		</g>
		<g>
			<g>
				
					<linearGradient id="SVGID_00000130642309379262406540000013546507231955053207_" gradientUnits="userSpaceOnUse" x1="301.9931" y1="342.7333" x2="316.036" y2="342.7333">
					<stop  offset="0" style="stop-color:#808080"/>
					<stop  offset="1" style="stop-color:#231F20"/>
				</linearGradient>
				<path style="fill:url(#SVGID_00000130642309379262406540000013546507231955053207_);" d="M315.8,329.2c-0.4-0.2-0.8-0.3-1.2-0.4
					c-0.4-0.1-0.8-0.1-1.3-0.1c-1.6,0.2-2.4,1.5-2.6,3.9c-0.2,2.4-0.3,3.7-0.3,3.7l-0.1,3.5l4.9-0.5l-0.3,5.2l-4.9,0.5l-0.9,16.5
					l-6.1,0.7l0.9-16.5l-2,0.2l0.3-5.2l2-0.2l0.3-6c0.2-3.3,1-5.9,2.5-7.9c1.5-1.9,3.5-3,6.1-3.3c1.1-0.1,2,0,2.9,0.4L315.8,329.2z"
					/>
			</g>
		</g>
		<g>
			<g>
				
					<linearGradient id="SVGID_00000116955685567523184800000000403819119869353135_" gradientUnits="userSpaceOnUse" x1="316.2287" y1="341.6943" x2="324.208" y2="341.6943">
					<stop  offset="0" style="stop-color:#808080"/>
					<stop  offset="1" style="stop-color:#231F20"/>
				</linearGradient>
				<path style="fill:url(#SVGID_00000116955685567523184800000000403819119869353135_);" d="M324.2,322.6l-1.9,37.5l-6.1,0.7
					l1.9-37.5L324.2,322.6L324.2,322.6z"/>
			</g>
		</g>
		<g>
			<g>
				
					<linearGradient id="SVGID_00000031899877847650697700000008240177382930159768_" gradientUnits="userSpaceOnUse" x1="325.6374" y1="347.8725" x2="346.161" y2="347.8725">
					<stop  offset="0" style="stop-color:#808080"/>
					<stop  offset="1" style="stop-color:#231F20"/>
				</linearGradient>
				<path style="fill:url(#SVGID_00000031899877847650697700000008240177382930159768_);" d="M346.1,347.8l-14.1,1.5
					c0,0.7,0,1.1,0,1.4c0.1,1.4,0.6,2.5,1.2,3.2c0.6,0.7,1.5,1,2.7,0.9c1-0.1,1.9-0.5,2.5-1.1c0.7-0.6,1.3-1.4,1.8-2.3l5.6,0.3
					c-0.9,2.3-2.2,4.1-4,5.4c-1.8,1.3-3.8,2.1-6.1,2.4c-2.8,0.3-5.1-0.3-6.9-1.7c-1.8-1.4-2.8-3.5-3.1-6.3c-0.2-2.1,0-4.3,0.7-6.5
					c0.7-2.3,1.9-4.2,3.6-5.8c1.8-1.6,3.9-2.5,6.5-2.8c2.8-0.3,4.9,0.3,6.6,1.7c1.7,1.4,2.6,3.5,2.9,6.3c0.1,0.5,0.1,1,0.1,1.5
					C346.2,346.3,346.1,347,346.1,347.8z M340.6,344.5c-0.1-1.4-0.6-2.4-1.3-3.1c-0.7-0.6-1.6-1-2.6-0.9c-0.9,0.1-1.8,0.6-2.7,1.4
					c-0.8,0.8-1.4,2-1.6,3.4L340.6,344.5z"/>
			</g>
		</g>
		<g>
			<g>
				
					<linearGradient id="SVGID_00000026124516506996628200000006399786451164360613_" gradientUnits="userSpaceOnUse" x1="230.9235" y1="337.6664" x2="239.1455" y2="337.6664">
					<stop  offset="0" style="stop-color:#808080"/>
					<stop  offset="1" style="stop-color:#231F20"/>
				</linearGradient>
				<path style="fill:url(#SVGID_00000026124516506996628200000006399786451164360613_);" d="M238.4,334.7c-0.4-0.4-0.9-0.6-1.5-0.8
					s-1-0.2-1.6-0.2c-0.7,0.1-1.3,0.3-1.9,0.8c-0.5,0.4-1,1-1.2,1.6c-0.3,0.7-0.4,1.3-0.3,2s0.3,1.3,0.7,1.9c0.4,0.6,0.9,1,1.6,1.3
					c0.6,0.3,1.3,0.4,2,0.3c0.5-0.1,1-0.2,1.5-0.5c0.5-0.3,0.9-0.6,1.3-1.1l0.1,1.3c-0.4,0.4-0.8,0.6-1.3,0.9
					c-0.5,0.2-0.9,0.4-1.5,0.4c-0.8,0.1-1.7,0-2.5-0.4c-0.8-0.3-1.5-0.9-2-1.6c-0.5-0.7-0.8-1.5-0.9-2.4c-0.1-0.9,0-1.7,0.4-2.5
					s0.9-1.5,1.6-2c0.7-0.5,1.5-0.8,2.4-0.9c0.5-0.1,1.1,0,1.6,0.1c0.5,0.1,1,0.3,1.3,0.5L238.4,334.7L238.4,334.7z"/>
			</g>
		</g>
		<g>
			<g>
				
					<linearGradient id="SVGID_00000116949060994491765340000003656714500817929405_" gradientUnits="userSpaceOnUse" x1="239.5134" y1="338.7606" x2="245.7722" y2="338.7606">
					<stop  offset="0" style="stop-color:#808080"/>
					<stop  offset="1" style="stop-color:#231F20"/>
				</linearGradient>
				<path style="fill:url(#SVGID_00000116949060994491765340000003656714500817929405_);" d="M239.5,339.1c-0.1-0.6,0-1.1,0.3-1.6
					s0.6-0.9,1-1.3c0.5-0.3,1-0.5,1.5-0.6c0.6-0.1,1.1,0,1.6,0.3c0.5,0.2,0.9,0.6,1.3,1c0.3,0.5,0.5,1,0.6,1.5
					c0.1,0.6,0,1.1-0.3,1.6c-0.2,0.5-0.6,0.9-1,1.3c-0.5,0.3-1,0.5-1.5,0.6c-0.6,0.1-1.1,0-1.6-0.3c-0.5-0.2-0.9-0.6-1.3-1
					C239.8,340.1,239.6,339.6,239.5,339.1z M242.4,336.6c-0.6,0.1-1.1,0.3-1.5,0.8c-0.3,0.5-0.5,1-0.4,1.6c0,0.5,0.2,0.8,0.5,1.2
					c0.3,0.3,0.5,0.5,0.9,0.7c0.3,0.1,0.7,0.2,1,0.1c0.4,0,0.7-0.2,1-0.4c0.3-0.2,0.5-0.5,0.7-0.9c0.2-0.3,0.2-0.7,0.2-1.2
					c0-0.4-0.2-0.7-0.4-1c-0.2-0.3-0.5-0.6-0.8-0.7C243.2,336.6,242.8,336.5,242.4,336.6z"/>
			</g>
		</g>
		<g>
			<g>
				
					<linearGradient id="SVGID_00000132805504256970630660000001281499191399473593_" gradientUnits="userSpaceOnUse" x1="245.6933" y1="335.9238" x2="248.839" y2="335.9238">
					<stop  offset="0" style="stop-color:#808080"/>
					<stop  offset="1" style="stop-color:#231F20"/>
				</linearGradient>
				<path style="fill:url(#SVGID_00000132805504256970630660000001281499191399473593_);" d="M248.4,331.6c-0.1-0.1-0.3-0.1-0.4-0.1
					c-0.1,0-0.2,0-0.3,0c-0.3,0-0.5,0.2-0.6,0.3c-0.1,0.2-0.1,0.5-0.1,1l0.3,2.4l1.5-0.2l0.1,0.9l-1.5,0.2l0.5,5l-1,0.1l-0.5-5
					l-0.6,0.1l-0.1-0.9l0.6-0.1l-0.3-2.6c0-0.5,0-0.8,0-1.1c0.1-0.3,0.3-0.5,0.5-0.7c0.3-0.2,0.6-0.3,1-0.4c0.1,0,0.3,0,0.4,0
					c0.1,0,0.3,0,0.3,0.1L248.4,331.6L248.4,331.6L248.4,331.6z"/>
			</g>
		</g>
		<g>
			<g>
				
					<linearGradient id="SVGID_00000155867837133461494670000001164084702457901720_" gradientUnits="userSpaceOnUse" x1="248.5118" y1="335.6227" x2="251.6574" y2="335.6227">
					<stop  offset="0" style="stop-color:#808080"/>
					<stop  offset="1" style="stop-color:#231F20"/>
				</linearGradient>
				<path style="fill:url(#SVGID_00000155867837133461494670000001164084702457901720_);" d="M251.2,331.3c-0.1-0.1-0.3-0.1-0.4-0.1
					c-0.1,0-0.2,0-0.3,0c-0.3,0-0.5,0.2-0.6,0.3c-0.1,0.2-0.1,0.5-0.1,1l0.3,2.4l1.5-0.2l0.1,0.9l-1.5,0.2l0.5,5l-1,0.1l-0.5-5
					l-0.6,0.1l-0.1-0.9l0.6-0.1l-0.3-2.6c0-0.5,0-0.8,0-1.1c0.1-0.3,0.3-0.5,0.5-0.7c0.3-0.2,0.6-0.3,1-0.4c0.1,0,0.3,0,0.4,0
					c0.1,0,0.3,0,0.3,0.1L251.2,331.3L251.2,331.3L251.2,331.3z"/>
			</g>
		</g>
		<g>
			<g>
				
					<linearGradient id="SVGID_00000027593621745730839800000001150102709700841635_" gradientUnits="userSpaceOnUse" x1="251.5579" y1="337.4847" x2="257.3442" y2="337.4847">
					<stop  offset="0" style="stop-color:#808080"/>
					<stop  offset="1" style="stop-color:#231F20"/>
				</linearGradient>
				<path style="fill:url(#SVGID_00000027593621745730839800000001150102709700841635_);" d="M257.2,337.4l-4.6,0.5
					c0.1,0.6,0.3,1,0.7,1.4c0.4,0.3,0.9,0.5,1.4,0.4c0.4,0,0.7-0.2,0.9-0.4c0.3-0.2,0.5-0.6,0.7-1l0.9,0.4c-0.2,0.5-0.6,1-1,1.4
					c-0.4,0.3-0.9,0.5-1.5,0.6c-0.6,0.1-1.1,0-1.6-0.3c-0.5-0.2-0.8-0.6-1.1-1s-0.4-0.9-0.5-1.5c-0.1-0.6,0-1.1,0.2-1.7
					c0.2-0.5,0.5-0.9,0.9-1.2c0.4-0.3,0.9-0.5,1.5-0.6c0.6-0.1,1.1,0,1.5,0.3c0.5,0.2,0.8,0.6,1.1,1c0.3,0.5,0.4,1,0.5,1.6
					C257.3,337.3,257.3,337.3,257.2,337.4z M256.1,336.7c-0.1-0.4-0.4-0.8-0.7-1.1c-0.4-0.3-0.8-0.3-1.2-0.3c-0.4,0-0.8,0.2-1.1,0.6
					c-0.3,0.4-0.5,0.7-0.5,1.2L256.1,336.7L256.1,336.7z"/>
			</g>
		</g>
		<g>
			<g>
				
					<linearGradient id="SVGID_00000055709440782590033060000003812458748487420069_" gradientUnits="userSpaceOnUse" x1="257.454" y1="336.8547" x2="263.2404" y2="336.8547">
					<stop  offset="0" style="stop-color:#808080"/>
					<stop  offset="1" style="stop-color:#231F20"/>
				</linearGradient>
				<path style="fill:url(#SVGID_00000055709440782590033060000003812458748487420069_);" d="M263.1,336.8l-4.6,0.5
					c0.1,0.6,0.3,1,0.7,1.4c0.4,0.3,0.9,0.5,1.4,0.4c0.4,0,0.7-0.2,0.9-0.4c0.3-0.2,0.5-0.6,0.7-1l0.9,0.4c-0.2,0.5-0.6,1-1,1.4
					c-0.4,0.3-0.9,0.5-1.5,0.6c-0.6,0.1-1.1,0-1.6-0.3c-0.5-0.2-0.8-0.6-1.1-1c-0.3-0.5-0.4-0.9-0.5-1.5c-0.1-0.6,0-1.1,0.2-1.7
					c0.2-0.5,0.5-0.9,0.9-1.2c0.4-0.3,0.9-0.5,1.5-0.6c0.6-0.1,1.1,0,1.5,0.3c0.5,0.2,0.8,0.6,1.1,1c0.3,0.5,0.4,1,0.5,1.6
					C263.2,336.6,263.2,336.7,263.1,336.8z M262,336c-0.1-0.4-0.4-0.8-0.7-1.1c-0.4-0.3-0.8-0.3-1.2-0.3c-0.4,0-0.8,0.2-1.1,0.6
					c-0.3,0.4-0.5,0.7-0.5,1.2L262,336L262,336z"/>
			</g>
		</g>
		<g>
			<g>
				
					<linearGradient id="SVGID_00000098942846837913036310000005485596078023804836_" gradientUnits="userSpaceOnUse" x1="266.6492" y1="334.037" x2="275.0298" y2="334.037">
					<stop  offset="0" style="stop-color:#808080"/>
					<stop  offset="1" style="stop-color:#231F20"/>
				</linearGradient>
				<path style="fill:url(#SVGID_00000098942846837913036310000005485596078023804836_);" d="M270.3,333.3l2.2,2.3l0.9-1.4l0.8,0.6
					l-1,1.5l1.8,1.9l-1.4,0.1l-1.1-1.3c-0.5,0.6-1,1-1.5,1.3c-0.5,0.3-0.9,0.5-1.4,0.5c-0.5,0.1-0.9,0-1.4-0.2
					c-0.4-0.2-0.8-0.4-1.1-0.8s-0.4-0.8-0.5-1.3c0-0.4,0-0.8,0.1-1.2c0.1-0.4,0.3-0.7,0.6-1c0.3-0.3,0.7-0.7,1.4-1.3
					c-0.3-0.3-0.6-0.7-0.8-0.9c-0.2-0.3-0.3-0.6-0.4-1c-0.1-0.6,0.1-1.1,0.4-1.5c0.3-0.4,0.8-0.7,1.4-0.7c0.6-0.1,1.1,0.1,1.5,0.4
					c0.4,0.3,0.7,0.7,0.7,1.3c0,0.5,0,0.9-0.3,1.2C271.2,332.4,270.8,332.8,270.3,333.3z M269.6,332.6l0.4-0.4
					c0.3-0.3,0.5-0.5,0.6-0.8c0.1-0.2,0.1-0.4,0.1-0.6c0-0.3-0.2-0.5-0.4-0.7c-0.2-0.1-0.5-0.2-0.7-0.2c-0.3,0-0.5,0.2-0.7,0.4
					c-0.2,0.2-0.3,0.5-0.2,0.7c0,0.3,0.2,0.5,0.4,0.8L269.6,332.6z M271.9,336.5l-2.4-2.5c-0.3,0.3-0.6,0.5-0.9,0.7
					c-0.3,0.2-0.5,0.5-0.7,0.8c-0.2,0.3-0.3,0.7-0.2,1c0,0.5,0.3,0.8,0.6,1.1c0.4,0.3,0.8,0.4,1.2,0.4c0.4,0,0.7-0.2,1.1-0.4
					C271,337.4,271.4,337,271.9,336.5z"/>
			</g>
		</g>
		<g>
			<g>
				
					<linearGradient id="SVGID_00000018220296217732126450000000523803774642230693_" gradientUnits="userSpaceOnUse" x1="277.7447" y1="333.0198" x2="284.0603" y2="333.0198">
					<stop  offset="0" style="stop-color:#808080"/>
					<stop  offset="1" style="stop-color:#231F20"/>
				</linearGradient>
				<path style="fill:url(#SVGID_00000018220296217732126450000000523803774642230693_);" d="M279.3,328.2c1-0.1,1.8,0,2.4,0.4
					c0.6,0.4,0.9,1,1,1.8c0,0.4,0,0.8-0.1,1.1c-0.1,0.3-0.3,0.6-0.6,0.9c0.5,0.1,1,0.3,1.4,0.7s0.6,0.9,0.7,1.5
					c0.1,0.8-0.2,1.5-0.7,2c-0.5,0.5-1.3,0.8-2.4,0.9l-2.2,0.2l-1-9.4L279.3,328.2L279.3,328.2z M279.2,332.5l0.5-0.1
					c0.6-0.1,1.1-0.2,1.3-0.3c0.3-0.1,0.5-0.4,0.5-0.6s0.1-0.5,0.1-0.9c-0.1-0.6-0.2-0.9-0.6-1.2c-0.3-0.2-0.9-0.3-1.7-0.2l-0.5,0.1
					L279.2,332.5L279.2,332.5z M280.8,336.6c0.8-0.1,1.3-0.3,1.7-0.6c0.4-0.4,0.5-0.8,0.4-1.4c-0.1-0.6-0.3-0.9-0.8-1.2
					c-0.5-0.2-1.1-0.3-1.9-0.2l-1,0.1l0.4,3.4L280.8,336.6L280.8,336.6z"/>
			</g>
		</g>
		<g>
			<g>
				
					<linearGradient id="SVGID_00000142897489705975050080000003828396717772182688_" gradientUnits="userSpaceOnUse" x1="284.3725" y1="333.8886" x2="290.6089" y2="333.8886">
					<stop  offset="0" style="stop-color:#808080"/>
					<stop  offset="1" style="stop-color:#231F20"/>
				</linearGradient>
				<path style="fill:url(#SVGID_00000142897489705975050080000003828396717772182688_);" d="M289.1,331.6l-0.1-0.8l1-0.1l0.6,5.9
					l-1,0.1l-0.1-0.8l0,0c-0.4,0.7-1.1,1.1-1.9,1.2c-0.8,0.1-1.6-0.2-2.1-0.7c-0.6-0.6-1-1.3-1-2.1c-0.1-0.9,0.1-1.7,0.6-2.3
					c0.5-0.6,1.1-1,1.9-1.1c0.4,0,0.8,0,1.2,0.2C288.5,331.1,288.7,331.3,289.1,331.6L289.1,331.6z M287.1,331.8
					c-0.5,0.1-1,0.3-1.3,0.8c-0.3,0.5-0.5,1-0.4,1.6c0.1,0.6,0.3,1.1,0.7,1.5s0.9,0.6,1.5,0.5c0.6-0.1,1-0.3,1.4-0.8s0.5-1,0.4-1.6
					c-0.1-0.6-0.3-1.1-0.7-1.5C288.2,331.9,287.7,331.7,287.1,331.8z"/>
			</g>
		</g>
		<g>
			<g>
				
					<linearGradient id="SVGID_00000099644047209019344620000012042400053927989943_" gradientUnits="userSpaceOnUse" x1="291.1128" y1="333.3046" x2="294.3987" y2="333.3046">
					<stop  offset="0" style="stop-color:#808080"/>
					<stop  offset="1" style="stop-color:#231F20"/>
				</linearGradient>
				<path style="fill:url(#SVGID_00000099644047209019344620000012042400053927989943_);" d="M294,331.3c-0.1-0.1-0.2-0.1-0.3-0.1
					c-0.1-0.1-0.2-0.1-0.3-0.1c-0.4,0-0.7,0.2-0.8,0.6c-0.2,0.4-0.2,0.9-0.1,1.6l0.3,3l-1,0.1l-0.6-5.9l1-0.1l0.1,0.6l0,0
					c0.2-0.4,0.4-0.6,0.6-0.7c0.2-0.1,0.4-0.2,0.7-0.2c0.2,0,0.3,0,0.5,0c0.2,0,0.3,0.1,0.5,0.1L294,331.3z"/>
			</g>
		</g>
	</g>
</g>
<linearGradient id="SVGID_00000124155031859084567980000017331277241527765413_" gradientUnits="userSpaceOnUse" x1="91.0873" y1="241.799" x2="386.1912" y2="241.799">
	<stop  offset="0" style="stop-color:#808080"/>
	<stop  offset="1" style="stop-color:#231F20"/>
</linearGradient>
<path style="opacity:0.8;fill:url(#SVGID_00000124155031859084567980000017331277241527765413_);" d="M174.1,408l-5.3,0.5L143.4,122
	l164.8-14.6C330.8,92.6,351.5,78,375.5,66c3.3-1.6,7.2-0.6,10.7-1.8l-77.9,6.9l-2-22.6L169.5,60.6l2,22.7l-80.4,7.1l30.6,344.7
	c14.8-11.5,32.3-18.3,47.9-25.1C171,409.3,172.6,408.7,174.1,408z"/>
<path class="st21" d="M388.7,64l-0.2,0l-2.3,0.2c-3.5,1.2-7.4,0.2-10.7,1.8c-24,12-44.7,26.6-67.4,41.4l34.6-3.1l25.4,286.5
	L174.1,408c-1.5,0.7-3.1,1.3-4.6,2c-15.6,6.8-33.1,13.7-47.9,25.1l2.5,28.4l9.9-0.9l287.7-25.6L388.7,64z"/>
<g class="st1">
	
		<linearGradient id="SVGID_00000029029288421595000250000008090428467313845931_" gradientUnits="userSpaceOnUse" x1="177.059" y1="154.7616" x2="282.3666" y2="154.7616">
		<stop  offset="0" style="stop-color:#808080"/>
		<stop  offset="1" style="stop-color:#231F20"/>
	</linearGradient>
	<path style="fill:url(#SVGID_00000029029288421595000250000008090428467313845931_);" d="M179.5,173l69.4-6.2
		c1.6-1.2,3.1-2.5,4.6-3.8c9-8.1,18.5-18.1,28.9-26.5l-105.3,9.3L179.5,173z"/>
	
		<linearGradient id="SVGID_00000142155147830988589200000018127189525871659394_" gradientUnits="userSpaceOnUse" x1="248.8828" y1="150.2894" x2="316.2021" y2="150.2894">
		<stop  offset="0" style="stop-color:#808080"/>
		<stop  offset="1" style="stop-color:#231F20"/>
	</linearGradient>
	<path style="fill:url(#SVGID_00000142155147830988589200000018127189525871659394_);" d="M248.9,166.8l67.3-6l-2.4-27.1l-31.4,2.8
		c-10.4,8.4-19.8,18.3-28.9,26.5C252,164.3,250.5,165.6,248.9,166.8z"/>
</g>
<g class="st1">
	
		<linearGradient id="SVGID_00000019668823280330030040000004764889390608863392_" gradientUnits="userSpaceOnUse" x1="181.5999" y1="204.5669" x2="320.7431" y2="204.5669">
		<stop  offset="0" style="stop-color:#808080"/>
		<stop  offset="1" style="stop-color:#231F20"/>
	</linearGradient>
	<polygon style="fill:url(#SVGID_00000019668823280330030040000004764889390608863392_);" points="320.7,212.1 184,224.2 
		181.6,197.1 318.3,184.9 	"/>
</g>
</svg>
